# xmcd CD database file
#
# Track frame offsets:
#	150
#	18861
#	34629
#	45222
#	67347
#	80011
#	92673
#	106225
#	115576
#
# Disc length: 1787 seconds
#
# Revision: 0
# Processed by: cddbd v1.5.2PL0 Copyright (c) Steve Scherf et al.
# Submitted via: CDex 1.51
#
DISCID=6406f909
DTITLE=Harry James and his Big Band - The King James Version
DYEAR=1976
DGENRE=Jazz
TTITLE0=Corner Pocket
TTITLE1=Lara's Theme (From Dr Zhivago)
TTITLE2=Cherokee
TTITLE3=More Splutie, Please
TTITLE4=Traces
TTITLE5=Don't Be That Way
TTITLE6=Sweet Georgia Brown
TTITLE7=Shiny Silk Sockings
TTITLE8=Blues Stay Away From Me
EXTD=YEAR: 1976
EXTT0=
EXTT1=
EXTT2=
EXTT3=
EXTT4=
EXTT5=
EXTT6=
EXTT7=
EXTT8=
PLAYORDER=
